<svg width="100" height="117" viewBox="0 0 100 117" fill="none" xmlns="http://www.w3.org/2000/svg">
<g>
<path fill-rule="evenodd" clip-rule="evenodd" d="M60.571 93.2666C80.6405 88.4135 95.5474 70.3344 95.5474 48.7737C95.5474 23.4936 75.0538 3 49.7737 3C24.4936 3 4 23.4936 4 48.7737C4 70.3341 18.9065 88.413 38.9755 93.2664L48.9514 107.665C49.349 108.239 50.1977 108.239 50.5953 107.665L60.571 93.2666Z" fill="white"/>
</g>
<circle cx="49.8436" cy="48.8436" r="38.9773" fill="#D4D4D4"/>
<ellipse cx="50.0383" cy="114.808" rx="15.3462" ry="2.19231" fill="#333333" fill-opacity="0.3"/>
<path d="M24.4333 47.4723L28.8624 44.9257C29.6699 44.4979 30.7073 44.5591 31.839 45.2125C34.4137 46.699 36.501 50.6871 36.501 54.12C36.501 56.0073 35.8693 57.3324 34.8734 57.8974L34.8741 57.8988L30.6213 60.3468L24.4333 47.4723Z" fill="#222125"/>
<path d="M45.9456 59.8251L50.3747 57.2785C51.1821 56.8506 52.2195 56.9119 53.3512 57.5652C55.9259 59.0518 58.0132 63.0398 58.0132 66.4728C58.0132 68.3601 57.3815 69.6852 56.3855 70.2502L56.3861 70.2518L52.1337 72.6998L45.9456 59.8251Z" fill="#222125"/>
<path d="M75.7634 47.5515L70.1251 41.6429L70.0869 41.5296C67.3905 33.5395 61.9499 26.9226 56.4999 25.0052L55.6619 24.7103C53.9714 24.1155 52.3644 24.0152 50.9304 24.3984L50.9317 24.3969C50.9317 24.3969 44.9298 25.8459 42.6315 26.4052C42.0508 26.5465 41.4943 26.7692 40.9764 27.0675L21.6138 38.2131L58.2754 71.7356C62.5253 70.9791 66.6113 69.4896 70.3509 67.3335L74.724 64.8123C77.0196 63.4889 78.6735 61.2653 79.2243 58.6734C79.286 58.3834 79.3226 58.139 79.3226 57.9678V56.3135C79.3226 53.2978 77.8962 49.7866 75.7634 47.5515Z" fill="#404857"/>
<path d="M69.2926 42.8305L69.2498 42.7035C67.8701 38.6153 65.8501 34.8478 63.4807 31.7548C62.8136 30.8841 61.5978 30.6534 60.6478 31.2019L46.6558 39.2803C45.6304 39.8723 45.351 41.2301 46.0678 42.1725C48.4057 45.247 50.3989 48.9776 51.7644 53.0236L51.7826 53.0776L69.3774 42.9193L69.2926 42.8305Z" fill="#627996"/>
<path d="M50.554 64.7483L58.2757 71.7357C62.5256 70.9791 66.6115 69.4897 70.3512 67.3336L74.7234 64.8129C77.0072 63.4961 78.6569 61.2889 79.2161 58.7124C79.2827 58.4053 79.3228 58.1466 79.3228 57.9677V56.3135C79.3228 53.2979 77.8965 49.7865 75.7637 47.5514L70.1253 41.6428L50.2788 52.9671C50.2788 52.9671 50.4256 58.7781 50.554 64.7483Z" fill="#404857"/>
<path d="M55.9552 58.9889L50.3168 53.0803L50.2787 52.9672C47.5823 44.9771 42.1417 38.3602 36.6917 36.4428L35.8537 36.1479C34.144 35.5465 32.5203 35.4518 31.074 35.8502L31.0848 35.8376L22.096 38.002L22.1102 38.0065C20.9973 38.3073 20.2856 39.5467 20.2856 41.3753V43.5327C20.2856 45.7101 21.3394 48.2471 22.8939 49.8119V49.8121C26.0467 52.9859 29.3384 55.5758 32.6506 57.488L56.7884 71.466C58.2939 72.3352 59.5143 71.4125 59.5143 69.4052V67.751C59.5143 64.7354 58.088 61.224 55.9552 58.9889Z" fill="#404857"/>
<path d="M37.8945 47.4349L48.6538 53.6468C48.8968 53.7871 49.1841 53.5518 49.0943 53.286L49.0562 53.1727C46.9962 47.0681 43.095 41.7625 38.8752 39.3262C38.549 39.1378 38.2214 38.9672 37.8945 38.8153V47.4349Z" fill="#627996"/>
<path d="M35.4391 37.9248C33.4155 37.3733 31.5672 37.633 30.0621 38.694L27.6916 40.365L27.4331 40.5471L33.6288 44.9722L35.4391 46.0174V37.9248Z" fill="#627996"/>
<path d="M44.3899 63.5616C44.3899 60.1286 46.477 58.5507 49.0519 60.0372C51.6266 61.5238 53.7139 65.5118 53.7139 68.9448C53.7139 72.3778 51.6266 73.9557 49.0519 72.4691C46.4772 70.9828 44.3899 66.9947 44.3899 63.5616Z" fill="url(#paint0_linear_1081_5629)"/>
<path d="M46.1489 64.5776C46.1489 62.4401 47.4484 61.4577 49.0516 62.3832C50.6545 63.3088 51.9542 65.7918 51.9542 67.9292C51.9542 70.0667 50.6547 71.0491 49.0516 70.1236C47.4486 69.1981 46.1489 66.7151 46.1489 64.5776Z" fill="#E5EEF6"/>
<path d="M47.5725 65.3996C47.5725 64.3107 48.2346 63.8102 49.0512 64.2818C49.868 64.7533 50.5299 66.0183 50.5299 67.1073C50.5299 68.1962 49.8678 68.6967 49.0512 68.2251C48.2345 67.7536 47.5725 66.4886 47.5725 65.3996Z" fill="#2D2C31"/>
<path d="M22.8765 51.209C22.8765 47.776 24.9638 46.1981 27.5385 47.6846C30.1131 49.1712 32.2005 53.1592 32.2005 56.5922C32.2005 60.0252 30.1131 61.6031 27.5385 60.1165C24.9638 58.63 22.8765 54.6419 22.8765 51.209Z" fill="url(#paint1_linear_1081_5629)"/>
<path d="M29.3107 57.9821C30.5916 57.4363 30.848 55.1584 29.8832 52.8943C28.9185 50.6301 27.0981 49.2371 25.8171 49.7829C24.5362 50.3287 24.2799 52.6066 25.2446 54.8707C26.2093 57.1349 28.0298 58.5279 29.3107 57.9821Z" fill="#E5EEF6"/>
<path d="M26.0603 53.0466C26.0603 51.9577 26.7224 51.4572 27.539 51.9288C28.3558 52.4003 29.0177 53.6653 29.0177 54.7542C29.0177 55.8432 28.3556 56.3436 27.539 55.8721C26.7224 55.4005 26.0603 54.1356 26.0603 53.0466Z" fill="#2D2C31"/>
<path d="M63.934 62.9171C64.2849 62.6952 64.2675 62.1796 63.9012 61.9839C62.8997 61.4492 61.1227 60.605 59.8605 60.5887C59.0907 60.5786 58.3466 60.6015 57.7401 60.6315C56.6784 60.6841 55.6876 61.2208 55.1042 62.1093C55.0331 62.2176 54.9745 62.3211 54.9349 62.4147C54.8761 62.5535 54.8494 62.6995 54.8435 62.8425C54.8173 63.4651 55.2101 64.0254 55.7809 64.276C56.3686 64.534 57.3642 64.7859 58.9477 64.6972C61.005 64.5822 62.9273 63.5535 63.934 62.9171Z" fill="white"/>
<path d="M78.9999 53.6886C78.9999 53.6886 77.3423 55.8279 76.4052 55.3953C75.4682 54.9629 77.4857 49.8822 77.4857 49.8822C77.4857 49.8822 78.7981 51.3341 78.9999 53.6886Z" fill="white"/>
<path d="M65.3403 61.742L75.5455 55.85C75.5455 57.7563 74.5284 59.5178 72.8775 60.4709L68.0083 63.2822C66.8226 63.967 65.3403 63.1111 65.3403 61.742Z" fill="#2E343F"/>
<defs>
<filter id="filter0_d_1081_5629" x="0" y="0" width="99.5474" height="113.096" filterUnits="userSpaceOnUse" color-interpolation-filters="sRGB">
<feFlood flood-opacity="0" result="BackgroundImageFix"/>
<feColorMatrix in="SourceAlpha" type="matrix" values="0 0 0 0 0 0 0 0 0 0 0 0 0 0 0 0 0 0 127 0" result="hardAlpha"/>
<feOffset dy="1"/>
<feGaussianBlur stdDeviation="2"/>
<feComposite in2="hardAlpha" operator="out"/>
<feColorMatrix type="matrix" values="0 0 0 0 0 0 0 0 0 0 0 0 0 0 0 0 0 0 0.28 0"/>
<feBlend mode="normal" in2="BackgroundImageFix" result="effect1_dropShadow_1081_5629"/>
<feBlend mode="normal" in="SourceGraphic" in2="effect1_dropShadow_1081_5629" result="shape"/>
</filter>
<linearGradient id="paint0_linear_1081_5629" x1="49.0519" y1="74.9414" x2="49.0519" y2="58.1202" gradientUnits="userSpaceOnUse">
<stop stop-color="#2D2C31"/>
</linearGradient>
<linearGradient id="paint1_linear_1081_5629" x1="27.5385" y1="62.5888" x2="27.5385" y2="45.7676" gradientUnits="userSpaceOnUse">
<stop stop-color="#2D2C31"/>
</linearGradient>
</defs>
</svg>
